<?xml version="1.0" encoding="utf-8"?>
<!-- Generator: Adobe Illustrator 26.0.1, SVG Export Plug-In . SVG Version: 6.00 Build 0)  -->
<svg version="1.1" id="Layer_1" xmlns:amcharts="http://amcharts.com/ammap"
	 xmlns="http://www.w3.org/2000/svg" xmlns:xlink="http://www.w3.org/1999/xlink" x="0px" y="0px" viewBox="0 0 595.3 841.9"
	 style="enable-background:new 0 0 595.3 841.9;" xml:space="preserve">
<style type="text/css">
	.st0{fill:none;stroke:#000000;stroke-width:2.3066;}
	.st1{stroke:#000000;stroke-width:1.6928;}
	.st3{font-size:22px;}
	.st4{fill:none;stroke:#000000;stroke-width:1.7754;}
	.st5{fill:none;stroke:#000000;stroke-width:1.7754;stroke-dasharray:2.8639,2.8639;}
	.st6{fill:none;stroke:#000000;stroke-width:1.7562;}
	.st7{fill:none;stroke:#000000;stroke-width:1.7562;stroke-dasharray:3.0562,3.0562;}
	.st8{fill:none;stroke:#000000;stroke-width:1.6928;}
	.st9{fill:none;stroke:#000000;stroke-width:1.6928;stroke-dasharray:3.0631,3.0631;}
	.st10{enable-background:new    ;}
	.st11{fill:none;stroke:#000000;stroke-miterlimit:10;}
</style>
<path id="IT-88" class="st0" d="M143.5,715.3l2.5,4.4l10.4-3l9.8,16.5l-5.3,25.9l-7.2,4.1l-12.9-24.7l-2.6-13.1L143.5,715.3z
	 M128.8,694.4l-0.6,25.2l-7.5,1.8l-6.2-4.4l0.2-7.8l-7.1-4.2l11.3-10.3L128.8,694.4z M465.5,160.1l2.5,2.4l-11.5,7.3l-2.4-1.9
	l12.7-10.5L465.5,160.1z M109.8,142.1l-2.6,2.6l-0.3-4.6L109.8,142.1z M131.9,97.6l1.2,5.2l5.7,3.8l-3.4,3.4l-0.8,9l-12.6-5.9
	l-10.1,14l3-0.9l3.8,7.5l-2.2,6.3l-10.6-1.3l4.6-11.4l-2.9-0.4l0.7-5.2l6.8-2.9l4-7.4l4.4-0.5l-2.5-9L131.9,97.6z M404.3,59.2l4,7.1
	l-5.7,9.6l4,1.1L396,78.6l5-19.9L404.3,59.2z M373.3,56.2l4.5,2.8l-4.9,4.3L373.3,56.2z M347.1,54.1l11.6,9.5l-3.5,8.7l4.9,5.1
	l11.3-0.8l1.2-5.9l5.8-0.6l2.5,8.4l2.6,0.7l9.1,0.1l-4.5,5.9l5.8,1l4.2,6.4l-0.8,13.5l6.9-10.4l-1.3-5.3l11.5,0.6l1.4-5.3l4.2,5.7
	l-2.6,1.5l4.5,0.3l-1.2,5.7l6.1-0.3l1.2,5.2l-4.6,7l-2.5-3.1l-1.8,1.7l1.3,6.6l-3.8,2.4l-3.6,13.7l3.6-0.2l0.8-6.2l8.1-2.4
	l-2.4,10.4l6.1,0.3l-0.2-3.8l2.1,1.4l2.3-3.6l16.4,8.4l-3.2,3.4l-10-5.1l-6.4,5.5l2.7,4.8l-6,8l1.5,4.3l-12.5-1.8l-4.2,1.9l4.2,2.2
	l9.8,0.2l4,1.6l-1.8,1.9l4.5,5.3l6.8-9.5l5.8,1.1l-6.8,8.7l10.3,5.1l-2.4,6.3l7.7-1.7l9.7,6.7l-3.4,2.6l-4.6-1.7l-1.9,4.5l2.6,3.6
	l-4.1,2.1l-0.6,5.8l10.9,10.8l-0.7,12.5l9.2,11.6l-2.8,11.8l3,11.8l8.5,7.9l1.3,8.3l7.7,4.8L474,323.8l-18.2,15.5l-14.9,25.6v15.8
	l6.3,18.7l9.3,12.5l9.5,5.5l-0.1,7.7L455,451.9l0.7,9.8l5.7,1.4l1,3.5l-8.4,8.5l3.4,14.6l-6.3,21.5l2.1,21.5l-7.6,18.6l2.4,25.4
	l-5.8,20.5l3.3,12.4l-11.4,34.6l1.4,9.7l6.8,5.6l-7.2,2.4l-4.9,7.6l-4.6,21.4l3.9,5.9l-5,13.7h-4.7l-4.2,5.2l0.6,6l-4.6-3.9v-6.7
	l-4.4-1.7l-11.2,3.8l-33.4-27.5l-20.5-4.3l-9.8,6l-2.2,7.9l-11.8-9.5l-9.8,4.3l-11.7,14.6l-0.2,19.1l6.8,9.5l-5.8,21.8l-2.5-2.5
	l-3.4,1.7L259,787.2l-5.8-0.2l-4.6-6l-3,3.9l-5.9-9.4l-12.8-7.3l-0.8,4.8l-12.7,3.1l1.3,4.8l-5,2.5l2.3,6.1l-4,1.3l1.3-9.3l-9.5,0.5
	l3.4-15.2l-11.7-10.7l-2-19.7l-7.7-4.4l-13.5-0.3l2.1-8.5l-3.3-7.2l-3-2.8l-5.1,2.7l-0.2-13.4l-16.1-17.2l-0.5-4.5l13.8-12.9
	l2.4-6.4l-3.6-12.5l-6.4-2.3l-0.9-7.9l-3.8-3.1l9.1-14.4l0.2-5.3l-6.9-4.5l1-4.6l15.7-23.3l4.2-17l-5.1-9.9l2-9.3l-2.9-5.2l2.4-7.4
	l-2.3-15.4l3.1-3.9l8.2,14.2l3.6-0.3l1.6-9.5l7.5-12.7l1.8-19.7l-7-12.8l-11.1-0.7l-8.8,9l-10.1-9.5l-1.2-20.7l4.8-13.6l-8.4-4.9
	l6-5l2.3,3.2l9.9-3l8.5-9l0.4-7l-8.2-22.7l6.1-33.9l-5.4-10.4l-9.1-5.3l-9-0.5l-0.8-6.6l5.3-15.5l-6.6-24.8l-8.3-3l-8.9-27.9
	l-12.5,2.5l-0.6,4.2l-9.4,0.2l-0.1-8.1l3.5-2.4l-5-5.3l-8.3,13.1l-2.6-0.8L91,252.5l9.5-4.3l5-14.7l-7.2-3.1l-10-11.3l8.1-10.8
	l-1.3-8.9l6.3-5.4l8.5-23.3l-11.1-15.4l6.5-11.1l7.9,5.7l-1.2,13.2l19.1,20.4l14.1,2.8l10.5-1.8l8.9,6.6l25.1-3.7l31.5-25.5
	l23.1-3.4l19.1-21.7l-0.5-6l14.2-8.5l19-25.7l7.6-4.1l3,3.4l11.9-2.3L321,87l7.8-0.3l3.8-4.2l-3.5-8.8l3.1-10.1l-6-1l0.7-4.3
	l4.8,3.3l6.6-3.6l0.3,4.2L347.1,54.1z M391.8,51l6.7,10.9l-2,5.3l-13.7,2.1l-2.1-5.8l6.8-5.2l-0.6-5.1l3.2,3.4L391.8,51z"/>
<circle class="st1" cx="180.4" cy="353.5" r="3.5"/>
<text transform="matrix(1 0 0 1 170.0222 344.4626)" class="st2 st3">Bosa</text>
<circle class="st1" cx="160.9" cy="473.6" r="3.5"/>
<circle class="st1" cx="243.3" cy="429.7" r="3.5"/>
<circle class="st1" cx="237.9" cy="351.8" r="3.5"/>
<a xlink:href="#filigosa" >
	<text transform="matrix(1 0 0 1 251.7447 340.5103)" class="st2 st3">Filigosa</text>
	<text transform="matrix(1 0 0 1 251.7447 364.1103)" class="st2 st3">2900-1800 av. J.-C.</text>
</a>
<a xlink:href="#nuraghe-losa" >
	<text transform="matrix(1 0 0 1 250.9255 436.3043)" class="st2 st3">Nuraghe Losa</text>
	<text transform="matrix(1 0 0 1 250.9255 459.9043)" class="st2 st3">1600-1200 av. J.-C.</text>
</a>
<a xlink:href="#tharros" >
	<text transform="matrix(1 0 0 1 72.0719 480.1004)" class="st2 st3">Tharros</text>
	<text transform="matrix(1 0 0 1 5.9719 503.7004)" class="st2 st3">800-200 av. J.-C.</text>
</a>
<g>
	<g>
		<path class="st4" d="M186.4,353.7c0.5-0.1,1-0.2,1.5-0.4"/>
		<path class="st5" d="M190.6,352.7c5.1-1.1,11.1-2.1,17.8-2.5c7.9-0.5,14.8-0.1,20.6,0.5"/>
		<path class="st4" d="M230.5,350.9c0.5,0.1,1,0.1,1.5,0.2"/>
	</g>
</g>
<g>
	<g>
		<path class="st6" d="M242.9,356.7c0.4,0.3,0.8,0.7,1.1,1"/>
		<path class="st7" d="M246.1,359.9c2.4,2.8,4.2,5.9,4.6,9.5c1.3,11.3-11.3,17.3-14,32.4c-1.3,7,0.1,13.6,2,18.8"/>
		<path class="st6" d="M239.3,422c0.2,0.5,0.4,0.9,0.6,1.4"/>
	</g>
</g>
<g>
	<g>
		<path class="st8" d="M236.3,434.4c-0.4,0.2-0.9,0.4-1.3,0.7"/>
		<path class="st9" d="M232.3,436.6c-2.8,1.6-6,3.6-9.5,6.1c-8.2,6-13,11.3-15.3,13.5c-5.8,5.7-16.3,11.8-37.1,13.3"/>
		<path class="st8" d="M168.9,469.7c-0.5,0-1,0.1-1.5,0.1"/>
	</g>
</g>
<a xlink:href="#san-giovanni-di-sinis" >
	<text transform="matrix(1 0 0 1 208.3407 501.2348)" class="st10"><tspan x="0" y="0" class="st2 st3">San Giovanni di Sinis</tspan><tspan x="0" y="21.6" class="st2 st3">6th century</tspan></text>
</a>
<line class="st11" x1="205.8" y1="493.4" x2="161.6" y2="473.9"/>
</svg>
