<?xml version="1.0" encoding="utf-8"?>
<!-- Generator: Adobe Illustrator 26.0.1, SVG Export Plug-In . SVG Version: 6.00 Build 0)  -->
<svg version="1.1" id="Layer_1" xmlns:amcharts="http://amcharts.com/ammap"
	 xmlns="http://www.w3.org/2000/svg" xmlns:xlink="http://www.w3.org/1999/xlink" x="0px" y="0px" viewBox="0 0 918 551"
	 style="enable-background:new 0 0 918 551;" xml:space="preserve">
<style type="text/css">
	.st0{font-family:'ArialMT';}
	.st1{font-size:32px;}
	.st2{fill:none;stroke:#000000;stroke-width:2.4369;}
	.st3{stroke:#000000;stroke-width:3;}
	.st4{fill:none;stroke:#000000;stroke-width:1.6928;}
	.st5{fill:none;stroke:#000000;stroke-width:1.6928;stroke-linecap:round;}
	.st6{fill:none;stroke:#000000;stroke-width:3;stroke-dasharray:6,6;}
	@media (prefers-color-scheme: dark) {
	.st0{font-family:'ArialMT';text-decoration-color:white !important}
	.st1{font-size:32px;fill: #fff;text-decoration-color:white !important}
	.st2{fill:none;stroke:white;stroke-width:2.4369;}
	.st3{stroke:white;stroke-width:3;}
	.st4{fill:none;stroke:white;stroke-width:1.6928;}
	.st5{fill:none;stroke:white;stroke-width:1.6928;stroke-linecap:round;}
	.st6{fill:none;stroke:white;stroke-width:3;stroke-dasharray:6,6;}
	}
</style>
<a xlink:href="#palermo" >
	<text transform="matrix(1 0 0 1 254.036 67.3465)" class="st0 st1">Palermo</text>
</a>
<polygon class="st2" points="789.4,20.7 801.2,28.6 814.6,31.8 801.1,35.5 793.8,41.6 790,55.7 794.1,54.9 774,91.9 726.4,153.9 
	726.3,161.9 718.2,167.5 719.2,171.9 703.1,192.7 701.2,198.2 704.8,206.5 699.8,224 693.9,231.6 694.2,248.7 679,263.1 
	671.5,277.1 674.4,328.8 690.7,338.9 698,340.7 701.3,337.5 714.2,353.2 711.5,356.9 706.9,353.7 706,361.8 703.7,352.7 
	698.1,354.7 696.5,370.3 701.4,381.7 708.1,379.5 710.9,383.6 707,381.9 705.1,384.7 708.4,392.6 715.4,396.6 723.9,396.2 
	724.4,411.1 719.1,409.1 718.6,416.8 722.1,419 726.8,416.2 733.8,428.3 725.1,424.4 718.8,427 715.2,437.5 702.2,440.6 
	688.1,456.2 673.7,491.8 684.9,527.3 682.7,532.9 678.7,530.5 670.1,538.7 654.5,522.2 639.4,524.9 628.4,515.5 619.4,513.2 
	595.2,521.5 585.8,516.4 572.5,516.3 559.4,503.9 547.1,499 523.4,495.9 514.8,486.6 510.8,469.7 495.1,441.6 465.8,411.9 
	441.5,400.4 417.5,395.1 391.9,395.7 376.3,399.8 369,397.7 355.8,384.3 337.8,382.7 315.3,368.8 310.7,358.5 288.9,340.6 
	281.5,342.5 277.8,338.4 262.7,337.9 250.9,325.7 231,315.8 224.6,308.2 218.4,307.7 213.2,296.1 191.6,275.1 169.4,271.4 
	155.2,274.7 140.8,253 129.6,249.2 95.1,248 69,254.5 52.3,229.1 41.7,222.4 30.4,223.1 19.6,210.6 18.7,196.5 6.8,178.6 
	16.3,173.2 21.8,155.6 14.9,145.1 25,130.9 24,121.2 30.1,118.5 22.9,110.7 30.2,108.8 43.2,94.1 51.4,95.6 60.2,92.2 66,86.3 
	65.5,80.8 78,81.3 84.6,71.8 79.2,61.1 83.2,55.9 84.8,60.1 92.5,59.2 92.8,68 98,73.2 97.8,81 103.3,90.8 125.6,108 147.5,101.9 
	169.8,88.1 163.6,72 168.3,70.9 171.6,64.8 169.6,61.4 177.5,54.8 198.3,62.1 208.6,57.9 210.7,51.3 219.2,52.6 229.9,44.8 
	233.1,53 242.2,58.4 244.7,68.9 241.1,74.5 246.2,81.6 262.2,86.1 273.2,83.4 277.5,78 284.8,80 284.9,94.6 292.5,103.3 
	328.7,122.9 342.3,125 366.3,118.5 387.4,106 406.2,102.3 417.1,109.6 427.7,110.7 436.9,106 472,113 493.4,110.2 506.8,102.7 
	520.1,104.7 560.2,91.9 587.4,62.7 598,67.2 622.9,60.5 628.9,54.4 643.1,66.8 661.5,66.9 665.6,74.6 675.1,76.5 694.1,66.1 
	705.1,53.6 710.6,38.2 706.4,29.2 710.5,28.9 713.9,36.4 711.2,46.7 722.2,49.8 750.2,42.1 780.9,21.4 "/>
<circle class="st3" cx="235.6" cy="70.8" r="3.5"/>
<circle class="st3" cx="665.5" cy="267.5" r="3.5"/>
<circle class="st3" cx="714.5" cy="403.6" r="3.5"/>
<circle class="st3" cx="675.5" cy="181.5" r="3.5"/>
<ellipse class="st4" cx="610.6" cy="169.9" rx="16.6" ry="8.3"/>
<path class="st5" d="M627.1,168.9c0,2.8,0.3,6.8,1.5,11.3c0.9,3.7,2.8,10.9,8.7,18c4.8,5.8,10.3,9,14,10.8"/>
<path class="st5" d="M594,169.9c0.7,2.6,2,9.1-0.9,16.3c-5,12.5-18.1,16-19.5,16.3"/>
<path class="st6" d="M235.6,74.3c0,6.3,0.9,15.6,5.4,25.2c14,29.5,49.8,34.3,84.2,49.5c42.6,18.7,58.5,42.4,82.8,61.8
	c37.8,30.3,108.7,60.6,254,56.3"/>
<path class="st6" d="M664.1,270.8c-2,7.5-4.4,18.5-4.8,31.8c-0.4,12.8-1.2,35.9,11.9,59.9c12.2,22.2,30.2,34.2,40,39.6"/>
<path class="st6" d="M665.5,264c2.9-4.2,5.8-9.3,8.4-15.3c2.3-5.3,8.8-20.6,7.6-37.8c-0.3-4.9-1.3-10.1-1.5-10.8
	c-1.1-5.8-2.6-10.5-3.8-14"/>
	<text transform="matrix(1 0 0 1 685.2167 290.5789)" class="st0 st1">Catania</text>
<a xlink:href="#etna" >
	<text transform="matrix(1 0 0 1 635.5004 160.2575)" class="st0 st1">Etna</text>
</a>
<a xlink:href="#syracusa" >
	<text transform="matrix(1 0 0 1 576.9806 423.0749)" class="st0 st1">Syracusa</text>
</a>
<circle class="st3" cx="785.5" cy="44.5" r="3.5"/>
<a xlink:href="#leaving-sicily" >
	<text transform="matrix(1 0 0 1 794.1644 81.5782)" class="st0 st1">Messina</text>
</a>
<path class="st6" d="M671.5,263.9c5.3-5.5,12.4-14.2,16.9-26.5c7.2-19.6,1.8-31.3,7.9-51.2c2.8-9.1,5.4-11.2,19.2-32.3
	c35.4-53.9,52.4-81.2,62.5-99.2c1.9-3.5,5.6-10,12.8-12.8c9.4-3.6,16.2,2.6,29.7,3.8c10.1,0.9,14.7-1.8,31.1-6.4
	c11-3,26.7-6.8,46.5-9.3"/>
</svg>
